<?xml version="1.0" encoding="UTF-8"?>
<!DOCTYPE svg PUBLIC "-//W3C//DTD SVG 1.1//EN" "http://www.w3.org/Graphics/SVG/1.1/DTD/svg11.dtd">
<!-- Creator: CorelDRAW -->
<svg xmlns="http://www.w3.org/2000/svg" xml:space="preserve" width="3.6cm" height="2.03192cm" shape-rendering="geometricPrecision" text-rendering="geometricPrecision" image-rendering="optimizeQuality" fill-rule="evenodd" clip-rule="evenodd"
viewBox="0 0 1.36344 0.769554"
 xmlns:xlink="http://www.w3.org/1999/xlink">
 <g id="Camada_x0020_1">
  <metadata id="CorelCorpID_0Corel-Layer"/>
  <g id="_111388128">
   <path id="_111386712" fill="#414042" fill-rule="nonzero" d="M0.0832934 0.754274l0.00841809 0 -0.0042892 -0.0113134 -0.00412889 0.0113134zm-0.0135636 0.0145274l0.0139409 -0.0364563 0.00788048 0 0.0138334 0.0360281 -0.00825779 0.000965754 -0.00294809 -0.00841809 -0.013243 0 -0.00284448 0.00788048 -0.0083614 0z"/>
   <path id="_111386640" fill="#414042" fill-rule="nonzero" d="M0.14474 0.744995c0,-0.0019276 -0.000543481,-0.00339383 -0.00163631,-0.00439477 -0.00108892,-0.00100094 -0.0026177,-0.00150142 -0.00458245,-0.00150142l-0.00482877 0 0 0.0113662 0.00493434 0c0.00178684,0 0.00324329,-0.000490697 0.00437131,-0.00147209 0.00112411,-0.000985304 0.00170473,-0.00231664 0.00174188,-0.00399791zm-0.0110475 0.0121716l0 0.011634 -0.0083614 0 0 -0.0364563 0.013456 0c0.00275455,0 0.00523541,0.000455508 0.00745234,0.00136652 0.00221693,0.000911015 0.00397641,0.00229709 0.00528232,0.00415431 0.00130201,0.00185722 0.00195888,0.00416604 0.00195888,0.00691668 0,0.00271741 -0.000697924,0.00500472 -0.00209377,0.00686389 -0.00139389,0.00185722 -0.00324329,0.00324329 -0.00555016,0.00415431 -0.002301,0.00091297 -0.00481509,0.00136652 -0.00753054,0.00136652l-0.00461373 0z"/>
   <path id="_111386568" fill="#414042" fill-rule="nonzero" d="M0.183826 0.754274l0.00841809 0 -0.00429116 -0.0113134 -0.00412694 0.0113134zm-0.0135655 0.0145274l0.0139428 -0.0364563 0.00787852 0 0.0138353 0.0360281 -0.00825974 0.000965754 -0.00294614 -0.00841809 -0.0132449 0 -0.00284252 0.00788048 -0.00836335 0z"/>
   <polygon id="_111386496" fill="#414042" fill-rule="nonzero" points="0.234223,0.768803 0.225861,0.768803 0.225861,0.732343 0.234223,0.732343 "/>
   <polygon id="_111386424" fill="#414042" fill-rule="nonzero" points="0.271809,0.757005 0.263608,0.768803 0.254226,0.768803 0.266931,0.75052 0.25508,0.733844 0.263393,0.731109 0.272132,0.743922 0.279691,0.732343 0.289396,0.732343 0.276956,0.750465 0.289075,0.768803 0.279158,0.768803 "/>
   <path id="_111386352" fill="#414042" fill-rule="nonzero" d="M0.325213 0.738562c-0.00178684,0 -0.0034251,0.000502427 -0.00490502,0.00150337 -0.00148382,0.00100094 -0.0026744,0.00242025 -0.00356782,0.00426183 -0.000893421,0.00184158 -0.0013372,0.00396077 -0.0013372,0.00635365 0,0.0035033 0.000862141,0.00635365 0.0025962,0.00855103 0.00173406,0.00219934 0.00408393,0.00329803 0.00705157,0.00329803 0.00182203,0 0.00347593,-0.000453553 0.00495975,-0.00136652 0.00148187,-0.000911015 0.00265485,-0.00227754 0.00350917,-0.00410543 0.000860186,-0.00182203 0.00128832,-0.00405265 0.00128832,-0.00669968 0,-0.00225017 -0.000390994,-0.00427161 -0.00117885,-0.00605845 -0.000785897,-0.0017888 -0.00190023,-0.00319051 -0.00334886,-0.00420709 -0.00145059,-0.00102049 -0.00313772,-0.00153074 -0.00506728,-0.00153074zm-0.0184979 0.0121736c0,-0.00368316 0.000776122,-0.00697142 0.00233032,-0.00986477 0.00156006,-0.00289726 0.00372617,-0.00516698 0.00651591,-0.00681306 0.00278583,-0.00164022 0.00596852,-0.00248085 0.00954416,-0.00251995 0.00378873,0 0.00706721,0.000832817 0.0098374,0.00249454 0.00277019,0.00166368 0.00488938,0.00392362 0.0063556,0.00678374 0.00146427,0.00285816 0.00219738,0.00604281 0.00219738,0.0095422 0,0.00371835 -0.000778077,0.0070242 -0.00233228,0.00991755 -0.00155615,0.00289726 -0.00372812,0.00515916 -0.00651395,0.0067857 -0.00278583,0.00162653 -0.00596852,0.0024574 -0.00954416,0.00249258 -0.00375158,0 -0.00701638,-0.000830862 -0.00978657,-0.00249258 -0.00277019,-0.00166368 -0.00489915,-0.00392362 -0.00637906,-0.0067857 -0.00148382,-0.00285621 -0.00222475,-0.0060389 -0.00222475,-0.00954025z"/>
   <polygon id="_111386280" fill="#414042" fill-rule="nonzero" points="0.372985,0.747033 0.372985,0.768803 0.364621,0.768803 0.364621,0.732343 0.372664,0.732343 0.388104,0.754379 0.388104,0.732343 0.39647,0.732343 0.39647,0.768803 0.388427,0.768803 "/>
   <path id="_111386208" fill="#414042" fill-rule="nonzero" d="M0.430032 0.754274l0.00841809 0 -0.0042892 -0.0113134 -0.00412889 0.0113134zm-0.0135675 0.0145274l0.0139448 -0.0364563 0.00787852 0 0.0138353 0.0360281 -0.00825974 0.000965754 -0.00294614 -0.00841809 -0.0132449 0 -0.00284252 0.00788048 -0.00836531 0z"/>
   <path id="_111386136" fill="#414042" fill-rule="nonzero" d="M0.495606 0.750358c0,-0.00346616 -0.000717473,-0.00620116 -0.0021446,-0.00820305 -0.00143104,-0.00200189 -0.0035209,-0.00300283 -0.00627349,-0.00300283l-0.00675637 0 0 0.0228966 0.00638102 0c0.00271545,0 0.00486201,-0.000967709 0.00643576,-0.00289726 0.00157179,-0.00193151 0.00235769,-0.00486005 0.00235769,-0.00879345zm0.00868592 0c0,0.00375549 -0.000697924,0.00701638 -0.00209377,0.00978657 -0.00138998,0.00277019 -0.00337428,0.00490502 -0.00595092,0.00640839 -0.00257078,0.00149751 -0.00559316,0.00225017 -0.00905932,0.00225017l-0.0151178 0 0 -0.0364602 0.0152253 0c0.00364406,0 0.0067466,0.000768303 0.00929978,0.00230491 0.00255514,0.00153856 0.00447883,0.00365579 0.0057652,0.0063556 0.00128832,0.0026959 0.00193151,0.00581603 0.00193151,0.00935452z"/>
   <path id="_111386064" fill="#414042" fill-rule="nonzero" d="M0.541235 0.738562c-0.0017888,0 -0.0034251,0.000502427 -0.00490893,0.00150337 -0.00148382,0.00100094 -0.00267049,0.00242025 -0.00356586,0.00426183 -0.000891466,0.00184158 -0.00133915,0.00396077 -0.00133915,0.00635365 0,0.0035033 0.000866051,0.00635365 0.00260011,0.00855103 0.00173406,0.00219934 0.00408393,0.00329803 0.00705157,0.00329803 0.00182203,0 0.00347398,-0.000453553 0.00495975,-0.00136652 0.00148187,-0.000911015 0.00265289,-0.00227754 0.00350917,-0.00410543 0.000860186,-0.00182203 0.00128832,-0.00405265 0.00128832,-0.00669968 0,-0.00225017 -0.000392949,-0.00427161 -0.00117885,-0.00605845 -0.000787852,-0.0017888 -0.00190414,-0.00319051 -0.00334886,-0.00420709 -0.00145059,-0.00102049 -0.00314163,-0.00153074 -0.00506728,-0.00153074zm-0.0184999 0.0121736c0,-0.00368316 0.000778077,-0.00697142 0.00233423,-0.00986477 0.0015542,-0.00289726 0.00372617,-0.00516698 0.006512,-0.00681306 0.00278974,-0.00164022 0.00597047,-0.00248085 0.00954611,-0.00251995 0.00378677,0 0.00706721,0.000832817 0.0098374,0.00249454 0.00277019,0.00166368 0.00488547,0.00392362 0.00635365,0.00678374 0.00146427,0.00285816 0.00219543,0.00604281 0.00219543,0.0095422 0,0.00371835 -0.000778077,0.0070242 -0.00232641,0.00991755 -0.00156006,0.00289726 -0.00373203,0.00515916 -0.00651591,0.0067857 -0.00278974,0.00162653 -0.00597243,0.0024574 -0.00954416,0.00249258 -0.00375354,0 -0.00701834,-0.000830862 -0.00978853,-0.00249258 -0.00277019,-0.00166368 -0.0048972,-0.00392362 -0.00637711,-0.0067857 -0.00148773,-0.00285621 -0.00222671,-0.0060389 -0.00222671,-0.00954025z"/>
   <path id="_111385992" fill="#414042" fill-rule="nonzero" d="M0.589759 0.769499c-0.00168127,0 -0.00367534,-0.00030302 -0.00598025,-0.000911015 -0.00230882,-0.000607995 -0.00410152,-0.00130592 -0.00538789,-0.00209182l0.00241243 -0.00654132c0.00114366,0.000607995 0.00256492,0.00117298 0.00426183,0.00169105 0.00169887,0.000518067 0.0032081,0.000776122 0.00453162,0.000776122 0.0017888,0 0.00316314,-0.00031084 0.00412694,-0.000938385 0.000967709,-0.00062559 0.00145059,-0.00145645 0.00145059,-0.00249258 0,-0.000678374 -0.000369489,-0.00130396 -0.00110065,-0.00187872 -0.000733113,-0.000568896 -0.00192173,-0.00133915 -0.00356782,-0.00230491 -0.000353849,-0.000175947 -0.000893421,-0.000480922 -0.00160503,-0.00090906 -0.00243198,-0.00146623 -0.00433807,-0.00268026 -0.00571242,-0.00364797 -0.0013763,-0.000963799 -0.00259033,-0.00217783 -0.00364602,-0.00364602 -0.00105568,-0.00146427 -0.00158157,-0.0031084 -0.00158157,-0.00493239 3.71444e-005,-0.00192955 0.000580626,-0.00365188 0.00163631,-0.0051748 0.00105568,-0.00151901 0.00256296,-0.00271545 0.00453162,-0.00358932 0.00196474,-0.000877781 0.00426965,-0.00131569 0.00691668,-0.00131569 0.00178489,0 0.00362451,0.000260011 0.00552279,0.000778077 0.00189045,0.000518067 0.00355218,0.00120622 0.00498517,0.00206249l-0.00257469 0.00611514c-0.00171842,-0.000717473 -0.00312795,-0.00121795 -0.00423446,-0.00150337 -0.00111042,-0.000285425 -0.00230491,-0.000428138 -0.00359128,-0.000428138 -0.00132547,0 -0.00240461,0.000277606 -0.0032472,0.000828907 -0.000836726,0.000557166 -0.00126095,0.00131765 -0.00126095,0.00228145 0,0.000785897 0.000349939,0.001476 0.00104786,0.00206249 0.000697924,0.000588445 0.00181421,0.00129614 0.00335277,0.00211919 0.000570851,0.000250236 0.00116125,0.000572806 0.00176534,0.000965754 0.00257665,0.00150142 0.00454335,0.00272523 0.00590205,0.00367339 0.00135675,0.000946205 0.00255123,0.00214265 0.00358737,0.00359128 0.00103809,0.00144863 0.00155811,0.00310058 0.00155811,0.00495975 0,0.00200189 -0.000563031,0.00379068 -0.00168909,0.00536248 -0.00112802,0.00157179 -0.00275064,0.00280538 -0.00488156,0.0036988 -0.0021231,0.000891466 -0.00463523,0.00133915 -0.00752858,0.00133915z"/>
   <path id="_111385920" fill="#414042" fill-rule="nonzero" d="M0.670771 0.744995c0,-0.0019276 -0.000547391,-0.00339383 -0.00163826,-0.00439477 -0.00108892,-0.00100094 -0.00261966,-0.00150142 -0.0045844,-0.00150142l-0.00482486 0 0 0.0113662 0.00493239 0c0.0017888,0 0.00324525,-0.000490697 0.00436935,-0.00147209 0.00112802,-0.000985304 0.00170669,-0.00231664 0.00174579,-0.00399791zm-0.0110475 0.0121716l0 0.011634 -0.00835944 0 0 -0.0364563 0.0134541 0c0.0027526,0 0.00523736,0.000455508 0.00745625,0.00136652 0.00221498,0.000911015 0.0039725,0.00229709 0.00528037,0.00415431 0.00130396,0.00185722 0.00195497,0.00416604 0.00195497,0.00691668 0,0.00271741 -0.000695969,0.00500472 -0.00208986,0.00686389 -0.00139585,0.00185722 -0.0032472,0.00324329 -0.00555016,0.00415431 -0.00230491,0.00091297 -0.004819,0.00136652 -0.00753445,0.00136652l-0.00461177 0z"/>
   <path id="_111385848" fill="#414042" fill-rule="nonzero" d="M0.715968 0.738562c-0.00178684,0 -0.00341924,0.000502427 -0.00490502,0.00150337 -0.00148187,0.00100094 -0.0026744,0.00242025 -0.00356586,0.00426183 -0.000895376,0.00184158 -0.00133915,0.00396077 -0.00133915,0.00635365 0,0.0035033 0.000866051,0.00635365 0.00260011,0.00855103 0.00173601,0.00219934 0.00408588,0.00329803 0.00704766,0.00329803 0.00182399,0 0.00347789,-0.000453553 0.00496562,-0.00136652 0.00147991,-0.000911015 0.00265094,-0.00227754 0.00350917,-0.00410543 0.000860186,-0.00182203 0.00128832,-0.00405265 0.00128832,-0.00669968 0,-0.00225017 -0.000394904,-0.00427161 -0.0011808,-0.00605845 -0.000789807,-0.0017888 -0.00190609,-0.00319051 -0.00335277,-0.00420709 -0.00144668,-0.00102049 -0.00313577,-0.00153074 -0.00506728,-0.00153074zm-0.018494 0.0121736c0,-0.00368316 0.000776122,-0.00697142 0.00232641,-0.00986477 0.00155811,-0.00289726 0.00373203,-0.00516698 0.00651591,-0.00681306 0.00279169,-0.00164022 0.00596852,-0.00248085 0.00954416,-0.00251995 0.00378873,0 0.00706721,0.000832817 0.00984327,0.00249454 0.00277019,0.00166368 0.00488351,0.00392362 0.00634974,0.00678374 0.00146623,0.00285816 0.00219934,0.00604281 0.00219934,0.0095422 0,0.00371835 -0.000778077,0.0070242 -0.00233228,0.00991755 -0.0015542,0.00289726 -0.00372812,0.00515916 -0.006512,0.0067857 -0.00279169,0.00162653 -0.00597243,0.0024574 -0.00954807,0.00249258 -0.00375158,0 -0.00701638,-0.000830862 -0.00978657,-0.00249258 -0.00276628,-0.00166368 -0.00489329,-0.00392362 -0.00637515,-0.0067857 -0.00148578,-0.00285621 -0.00222475,-0.0060389 -0.00222475,-0.00954025z"/>
   <path id="_111385776" fill="#414042" fill-rule="nonzero" d="M0.774785 0.744352c0,-0.00178489 -0.000535661,-0.00311035 -0.00160503,-0.00396468 -0.00107328,-0.000860186 -0.00261184,-0.00129028 -0.00461568,-0.00129028l-0.00482486 0 0 0.0104024 0.00493239 0c0.00182399,0 0.0033039,-0.000455508 0.00442996,-0.00136652 0.0011202,-0.000911015 0.00168323,-0.00217001 0.00168323,-0.00378091zm-0.019405 0.0244488l0 -0.0364582 0.0134541 0c0.00429116,0 0.00780814,0.000991169 0.0105627,0.00297742 0.0027526,0.00198429 0.0041328,0.00494021 0.0041328,0.00886969 0,0.00214851 -0.000504382,0.00404287 -0.00150337,0.00568505 -0.0010029,0.00164413 -0.00236356,0.00295005 -0.00407611,0.00391776l0.00852562 0.0150083 -0.00938189 0 -0.00681306 -0.0126526 -0.00654132 0 0 0.0126526 -0.00835944 0z"/>
   <polygon id="_99449928" fill="#414042" fill-rule="nonzero" points="0.829477,0.732343 0.859822,0.732343 0.860843,0.738937 0.848777,0.738937 0.848777,0.768803 0.840363,0.768803 0.840363,0.738937 0.829477,0.738937 "/>
   <polygon id="_99450384" fill="#414042" fill-rule="nonzero" points="0.905932,0.76226 0.906951,0.768803 0.880788,0.768803 0.880788,0.732343 0.905932,0.732343 0.906951,0.738937 0.889151,0.738937 0.889151,0.74714 0.90073,0.74714 0.901753,0.753736 0.889151,0.753736 0.889151,0.76226 "/>
   <path id="_102890200" fill="#414042" fill-rule="nonzero" d="M0.942928 0.731645c0.00157179,0 0.00330585,0.000234596 0.00520022,0.000697924 0.00189436,0.000465282 0.00356,0.00112411 0.00498712,0.00198429l-0.002518 0.00579062c-0.00193151,-0.00060604 -0.00337232,-0.00102049 -0.00432048,-0.00123359 -0.00094425,-0.000215047 -0.00208204,-0.000320615 -0.0034036,-0.000320615 -0.00167932,0 -0.00323938,0.000500472 -0.00469192,0.00149946 -0.00144668,0.0010029 -0.00260206,0.00242025 -0.00345443,0.00426183 -0.000860186,0.00184158 -0.00128832,0.00396272 -0.00128832,0.0063556 0,0.00228731 0.000406633,0.00433416 0.00123359,0.00614056 0.000823042,0.00180248 0.00194324,0.00321397 0.00337819,0.00423446 0.00142517,0.00101854 0.00303607,0.00152683 0.00482291,0.00152683 0.00253755,0 0.00502622,-0.000607995 0.00745429,-0.00182203l0.00316314 0.00621875c-0.0013587,0.000789807 -0.00302825,0.00140562 -0.00501254,0.0018494 -0.00198625,0.000445733 -0.00383369,0.000670554 -0.00555016,0.000670554 -0.00378873,0 -0.00705157,-0.000805447 -0.00978657,-0.00241243 -0.00273696,-0.00160698 -0.00481704,-0.00383369 -0.00624612,-0.00667426 -0.00142908,-0.00284252 -0.00214656,-0.00606822 -0.00214656,-0.00967905 0,-0.00368121 0.000772213,-0.00697142 0.00230882,-0.00986477 0.00153465,-0.00289335 0.00367925,-0.00515721 0.0064338,-0.00678179 0.0027526,-0.00162849 0.00590009,-0.00244176 0.00943663,-0.00244176z"/>
   <polygon id="_102890128" fill="#414042" fill-rule="nonzero" points="0.981904,0.747033 0.981904,0.768803 0.973541,0.768803 0.973541,0.732343 0.981582,0.732343 0.997024,0.754379 0.997024,0.732343 1.00539,0.732343 1.00539,0.768803 0.997345,0.768803 "/>
   <path id="_102890320" fill="#414042" fill-rule="nonzero" d="M1.04507 0.738562c-0.00178684,0 -0.00341924,0.000502427 -0.00490502,0.00150337 -0.00148187,0.00100094 -0.0026744,0.00242025 -0.00356586,0.00426183 -0.000895376,0.00184158 -0.00133915,0.00396077 -0.00133915,0.00635365 0,0.0035033 0.000866051,0.00635365 0.00260011,0.00855103 0.00173406,0.00219934 0.00408393,0.00329803 0.00704766,0.00329803 0.00182399,0 0.00347789,-0.000453553 0.00496366,-0.00136652 0.00148187,-0.000911015 0.00265289,-0.00227754 0.00350917,-0.00410543 0.000862141,-0.00182203 0.00129028,-0.00405265 0.00129028,-0.00669968 0,-0.00225017 -0.000396859,-0.00427161 -0.00118276,-0.00605845 -0.000787852,-0.0017888 -0.00190414,-0.00319051 -0.00335277,-0.00420709 -0.00144472,-0.00102049 -0.00313381,-0.00153074 -0.00506532,-0.00153074zm-0.018494 0.0121736c0,-0.00368316 0.000776122,-0.00697142 0.00232641,-0.00986477 0.00155811,-0.00289726 0.00373203,-0.00516698 0.00651591,-0.00681306 0.00279169,-0.00164022 0.00596852,-0.00248085 0.00954416,-0.00251995 0.00378873,0 0.00706721,0.000832817 0.00984327,0.00249454 0.00277019,0.00166368 0.00488351,0.00392362 0.00634974,0.00678374 0.00146427,0.00285816 0.00219934,0.00604281 0.00219934,0.0095422 0,0.00371835 -0.000778077,0.0070242 -0.00233423,0.00991755 -0.00155224,0.00289726 -0.00372617,0.00515916 -0.00651004,0.0067857 -0.00279169,0.00162653 -0.00597438,0.0024574 -0.00954807,0.00249258 -0.00375158,0 -0.00701638,-0.000830862 -0.00978657,-0.00249258 -0.00276628,-0.00166368 -0.00489329,-0.00392362 -0.00637515,-0.0067857 -0.00148578,-0.00285621 -0.00222475,-0.0060389 -0.00222475,-0.00954025z"/>
   <polygon id="_102889696" fill="#414042" fill-rule="nonzero" points="1.09284,0.76226 1.10865,0.76226 1.10962,0.768803 1.08448,0.768803 1.08448,0.732343 1.09284,0.732343 "/>
   <path id="_101976656" fill="#414042" fill-rule="nonzero" d="M1.14538 0.738562c-0.00178489,0 -0.00341728,0.000502427 -0.00490502,0.00150337 -0.00147991,0.00100094 -0.00267244,0.00242025 -0.00356391,0.00426183 -0.000895376,0.00184158 -0.00134111,0.00396077 -0.00134111,0.00635365 0,0.0035033 0.000869961,0.00635365 0.00260402,0.00855103 0.0017321,0.00219934 0.00408197,0.00329803 0.00704375,0.00329803 0.00182594,0 0.00347984,-0.000453553 0.00496757,-0.00136652 0.00147991,-0.000911015 0.00265094,-0.00227754 0.00350917,-0.00410543 0.000858231,-0.00182203 0.00128832,-0.00405265 0.00128832,-0.00669968 0,-0.00225017 -0.000396859,-0.00427161 -0.00118276,-0.00605845 -0.000787852,-0.0017888 -0.00190414,-0.00319051 -0.00335277,-0.00420709 -0.00144472,-0.00102049 -0.00313381,-0.00153074 -0.00506728,-0.00153074zm-0.018494 0.0121736c0,-0.00368316 0.000778077,-0.00697142 0.00232837,-0.00986477 0.00155811,-0.00289726 0.00373203,-0.00516698 0.00651591,-0.00681306 0.00279169,-0.00164022 0.00596852,-0.00248085 0.00954416,-0.00251995 0.00378873,0 0.00706721,0.000832817 0.00984327,0.00249454 0.00276824,0.00166368 0.00488156,0.00392362 0.00634974,0.00678374 0.00146427,0.00285816 0.00219934,0.00604281 0.00219934,0.0095422 0,0.00371835 -0.000778077,0.0070242 -0.00233423,0.00991755 -0.00155224,0.00289726 -0.00372617,0.00515916 -0.00651004,0.0067857 -0.00279169,0.00162653 -0.00597438,0.0024574 -0.00954807,0.00249258 -0.00375158,0 -0.00701638,-0.000830862 -0.00978657,-0.00249258 -0.00276628,-0.00166368 -0.00489329,-0.00392362 -0.00637515,-0.0067857 -0.00148578,-0.00285621 -0.00222671,-0.0060389 -0.00222671,-0.00954025z"/>
   <path id="_101976776" fill="#414042" fill-rule="nonzero" d="M1.20533 0.754592l-0.00692059 0 0.000697924 -0.00627154 0.0137845 0 0 0.0184979c-0.00139585,0.000821087 -0.00321006,0.00147209 -0.00544263,0.00195692 -0.00223844,0.000482877 -0.0044065,0.000725293 -0.00651591,0.000725293 -0.00379068,0 -0.00710631,-0.000785897 -0.00994492,-0.00235965 -0.00284448,-0.00157179 -0.005036,-0.00377309 -0.00656869,-0.00659606 -0.00153661,-0.00282297 -0.00230686,-0.00609559 -0.00230686,-0.00981003 0,-0.00375745 0.000850411,-0.00707699 0.00254928,-0.00997229 0.00169496,-0.00289726 0.00402723,-0.00513961 0.00699683,-0.00673096 0.00296373,-0.00159134 0.00625394,-0.00238702 0.00986477,-0.00238702 0.00164217,0 0.0035209,0.000232641 0.00563031,0.000697924 0.00211137,0.000465282 0.00385715,0.00112606 0.005253,0.00198429l-0.00252191 0.00579062c-0.00185722,-0.000572806 -0.00335668,-0.000973574 -0.00450034,-0.00120817 -0.00114366,-0.000230686 -0.00239679,-0.000347984 -0.00375354,-0.000347984 -0.00186113,0 -0.00362256,0.000455508 -0.00528232,0.00136848 -0.00166172,0.00091297 -0.00300283,0.00228927 -0.00402332,0.00412694 -0.00101658,0.00184354 -0.00152488,0.00405069 -0.00152488,0.00662343 0,0.0025395 0.000461373,0.0047017 0.00139585,0.00648659 0.00092861,0.0017888 0.00215829,0.00313577 0.00369685,0.00404874 0.00153465,0.00091297 0.00323156,0.00136457 0.00509465,0.00136457 0.00124922,0 0.00269786,-0.000140758 0.00434198,-0.000424228l0 -0.00756377z"/>
   <polygon id="_101976872" fill="#414042" fill-rule="nonzero" points="1.24291,0.768803 1.23455,0.768803 1.23455,0.732343 1.24291,0.732343 "/>
   <path id="_101976896" fill="#414042" fill-rule="nonzero" d="M1.27647 0.754274l0.00841809 0 -0.0042892 -0.0113134 -0.00412889 0.0113134zm-0.0135636 0.0145274l0.0139409 -0.0364563 0.00788439 0 0.0138294 0.0360281 -0.00825974 0.000965754 -0.00294614 -0.00841809 -0.013239 0 -0.00284643 0.00788048 -0.00836335 0z"/>
   <path id="_111509984" fill="#589B3C" fill-rule="nonzero" d="M0.954988 0.332264c0.00240657,0 0.00487569,0.000346029 0.00740347,0.00104004 0.00252582,0.000697924 0.00468997,0.00164804 0.00650222,0.0028523l-0.00375745 0.00854908c-0.0024574,-0.000832817 -0.00434394,-0.00138998 -0.00566354,-0.00166759 -0.00132351,-0.000277606 -0.00277215,-0.000414453 -0.00434589,-0.000414453 -0.00190218,0 -0.00372226,0.00060213 -0.00545827,0.00180444 -0.00173601,0.00120622 -0.00315141,0.00289726 -0.00424033,0.0050751 -0.00109087,0.00217979 -0.0016324,0.00465869 -0.0016324,0.00743865 0,0.00282884 0.000555211,0.00530774 0.00166563,0.00743865 0.00111238,0.00213287 0.00258642,0.00376918 0.00441627,0.00490306 0.00182985,0.00113584 0.00374181,0.00170473 0.00573783,0.00170473 0.00310253,0 0.00609168,-0.000860186 0.00896549,-0.00257665l0.00479554 0.00945814c-0.00180444,0.00106546 -0.00399596,0.00191196 -0.00656674,0.00253755 -0.00257469,0.000623635 -0.00508878,0.00093643 -0.00754422,0.00093643 -0.00500667,0 -0.0093643,-0.00103027 -0.013069,-0.00309276 -0.00371053,-0.00206054 -0.00654719,-0.00492457 -0.00851975,-0.00858622 -0.00196865,-0.00366166 -0.002952,-0.00787657 -0.002952,-0.0126506 0,-0.00477403 0.001042,-0.00903782 0.00312795,-0.0127914 0.002084,-0.00375745 0.00496953,-0.00668599 0.00865465,-0.00879736 0.00368512,-0.00210746 0.00784529,-0.00316118 0.0124805,-0.00316118z"/>
   <path id="_111509912" fill="#589B3C" fill-rule="nonzero" d="M1.01756 0.342761c-0.00213092,0 -0.00406438,0.000592355 -0.0058043,0.00177316 -0.00173992,0.0011808 -0.0031299,0.00284839 -0.0041719,0.00500667 -0.00104395,0.00215438 -0.00156202,0.00461959 -0.00156202,0.00740347 0,0.00408002 0.00100485,0.00741324 0.00302238,0.0100094 0.00201557,0.00259815 0.00478576,0.0038943 0.00830666,0.0038943 0.0033821,0 0.00615229,-0.00123945 0.00830666,-0.0037203 0.00215438,-0.0024789 0.00323352,-0.00601153 0.00323352,-0.0106018 0,-0.00403114 -0.00103222,-0.00733309 -0.00309276,-0.00990582 -0.00206445,-0.00257274 -0.00480922,-0.00385911 -0.00823824,-0.00385911zm-0.0245427 0.0142537c0,-0.00477599 0.00104395,-0.00904759 0.0031299,-0.0128265 0.00208595,-0.00377895 0.00498126,-0.00672118 0.00868983,-0.00882864 0.00370858,-0.00211137 0.00790198,-0.00316705 0.0125822,-0.00316705 0.00500667,0 0.00935452,0.00106741 0.0130357,0.00319833 0.00368512,0.00213287 0.00651004,0.00505164 0.00848065,0.00876217 0.00197061,0.00370662 0.00295396,0.0078316 0.00295396,0.012373 0,0.00482291 -0.00103027,0.00911797 -0.00309081,0.0128969 -0.00206054,0.00377895 -0.00494607,0.00671923 -0.0086566,0.00882864 -0.00371053,0.00211137 -0.00794695,0.00316314 -0.0127229,0.00316314 -0.00491284,0 -0.0092079,-0.00107719 -0.012893,-0.00323156 -0.00368512,-0.00215829 -0.00652373,-0.00508683 -0.00851975,-0.00879736 -0.00199211,-0.00370662 -0.00298915,-0.0078316 -0.00298915,-0.012371z"/>
   <polygon id="_111509840" fill="#589B3C" fill-rule="nonzero" points="1.08304,0.370498 1.10314,0.370498 1.10432,0.380441 1.07039,0.380441 1.07039,0.333168 1.08304,0.333168 "/>
   <path id="_111509768" fill="#589B3C" fill-rule="nonzero" d="M1.16022 0.315647l-0.0079274 0.0138353 -0.00917662 -0.00152683 0.00459027 -0.0123085 0.0125138 0zm0.00465869 0.0548525l0.0011808 0.00994101 -0.0346225 0 0 -0.0472731 0.0334417 0 0.0011808 0.00993906 -0.0219699 0 0 0.00862337 0.0145313 0 0.0011808 0.00993906 -0.0157121 0 0 0.00883059 0.0207891 0z"/>
   <path id="_111509696" fill="#589B3C" fill-rule="nonzero" d="M1.22042 0.362436l-0.00813462 0 0.00111042 -0.00924505 0.0184236 0 0 0.0246776c-0.00171646,0.00106741 -0.00417972,0.00191196 -0.00740347,0.00253755 -0.00322179,0.000627545 -0.00615033,0.00094034 -0.00879345,0.00094034 -0.00510051,0 -0.00955002,-0.000961844 -0.0133505,-0.00288553 -0.00379655,-0.00192369 -0.00673291,-0.00471734 -0.00879345,-0.00837704 -0.00206249,-0.00366166 -0.00309276,-0.00801928 -0.00309276,-0.0130709 0,-0.00500667 0.00114757,-0.0093858 0.0034427,-0.0131393 0.00229122,-0.00375354 0.00539767,-0.00662734 0.00931542,-0.00862141 0.0039158,-0.00199211 0.00821282,-0.00298719 0.012895,-0.00298719 0.00254732,0 0.00529601,0.000344074 0.00823824,0.00104004 0.00294418,0.000697924 0.00529601,0.00164804 0.00705744,0.0028523l-0.00375549 0.00855103c-0.00231664,-0.000785897 -0.00435371,-0.00133329 -0.0061171,-0.00163631 -0.00176143,-0.00029911 -0.0035209,-0.000449643 -0.00528428,-0.000449643 -0.00199211,0 -0.00397445,0.000543481 -0.00594506,0.00163631 -0.00197061,0.00108696 -0.00359128,0.00270763 -0.00486592,0.00486201 -0.00127268,0.00215438 -0.00191,0.00476621 -0.00191,0.00782378 0,0.00319637 0.00060213,0.00585122 0.00180444,0.00795868 0.00120817,0.00210941 0.00276042,0.00365188 0.00466064,0.00462546 0.00190023,0.000971619 0.00391385,0.00145841 0.00604867,0.00145841 0.00139194,0 0.00287185,-0.000136848 0.00444951,-0.000418363l0 -0.00813267z"/>
   <polygon id="_111509624" fill="#589B3C" fill-rule="nonzero" points="1.27367,0.380441 1.26102,0.380441 1.26102,0.333168 1.27367,0.333168 "/>
   <path id="_111509552" fill="#589B3C" fill-rule="nonzero" d="M1.32671 0.342761c-0.00212896,0 -0.00406438,0.000592355 -0.00580235,0.00177316 -0.00173992,0.0011808 -0.0031299,0.00284839 -0.0041719,0.00500667 -0.00104395,0.00215438 -0.00156397,0.00461959 -0.00156397,0.00740347 0,0.00408002 0.00100485,0.00741324 0.00302238,0.0100094 0.00201753,0.00259815 0.00478772,0.0038943 0.00830666,0.0038943 0.00338405,0 0.00615424,-0.00123945 0.00830862,-0.0037203 0.00215438,-0.0024789 0.00323352,-0.00601153 0.00323352,-0.0106018 0,-0.00403114 -0.00103222,-0.00733309 -0.00309276,-0.00990582 -0.00206445,-0.00257274 -0.00480922,-0.00385911 -0.00824019,-0.00385911zm-0.0245407 0.0142537c0,-0.00477599 0.00104395,-0.00904759 0.0031299,-0.0128265 0.00208595,-0.00377895 0.00498126,-0.00672118 0.00868788,-0.00882864 0.00371053,-0.00211137 0.00790394,-0.00316705 0.0125841,-0.00316705 0.00500667,0 0.00935257,0.00106741 0.0130357,0.00319833 0.00368512,0.00213287 0.00651004,0.00505164 0.00848065,0.00876217 0.00196865,0.00370662 0.00295396,0.0078316 0.00295396,0.012373 0,0.00482291 -0.00103027,0.00911797 -0.00309081,0.0128969 -0.00206249,0.00377895 -0.00494607,0.00671923 -0.0086566,0.00882864 -0.00371053,0.00211137 -0.00794695,0.00316314 -0.0127229,0.00316314 -0.00491479,0 -0.00920986,-0.00107719 -0.012895,-0.00323156 -0.00368512,-0.00215829 -0.00652373,-0.00508683 -0.0085178,-0.00879736 -0.00199211,-0.00370662 -0.00298915,-0.0078316 -0.00298915,-0.012371z"/>
   <path id="_111509480" fill="#589B3C" fill-rule="nonzero" d="M0.179791 0.653237c-0.00139585,0.00319833 -0.00332345,0.00602912 -0.00578475,0.00849043 -0.00246326,0.00246326 -0.0053312,0.00439281 -0.00861164,0.00578475 -0.00328826,0.00139389 -0.00673096,0.00209182 -0.0103398,0.00209182l-0.0642364 0c-0.0251018,0 -0.0465146,-0.00886187 -0.0642344,-0.0265837 -0.0177218,-0.0177198 -0.0265837,-0.0392108 -0.0265837,-0.0644788 0,-0.0251057 0.00886187,-0.0465185 0.0265837,-0.0642364 0.0178801,-0.0178841 0.0392949,-0.02683 0.0642344,-0.02683l0.0642364 0c0.00360887,0 0.00705157,0.000701834 0.0103398,0.00209377 0.00328044,0.00139389 0.00614838,0.00331954 0.00861164,0.0057828 0.00246131,0.00246131 0.0043889,0.00533315 0.00578475,0.00861359 0.00138998,0.00328435 0.00208986,0.00672705 0.00208986,0.0103398 0,0.00377504 -0.000699879,0.0072588 -0.00208986,0.0104591 -0.00139585,0.00319833 -0.00332345,0.00602912 -0.00578475,0.00848652 -0.00246326,0.00246326 -0.0053312,0.00439477 -0.00861164,0.00578866 -0.00328826,0.00139585 -0.00673096,0.00208791 -0.0103398,0.00208791l-0.0642364 0c-0.010334,0 -0.0191958,0.00369294 -0.0265778,0.0110769 -0.00722165,0.00722165 -0.0108305,0.0159995 -0.0108305,0.0263373 0,0.0101717 0.00360887,0.0190355 0.0108305,0.0265778 0.00754227,0.00722165 0.0164022,0.0108305 0.0265778,0.0108305l0.0642364 0c0.00360887,0 0.00705157,0.000699879 0.0103398,0.00209182 0.00328044,0.00139585 0.00614838,0.00332149 0.00861164,0.0057828 0.00246131,0.00246326 0.0043889,0.00533511 0.00578475,0.00861555 0.00138998,0.00328435 0.00208986,0.006729 0.00208986,0.0103359 0,0.00377504 -0.000699879,0.0072588 -0.00208986,0.010461z"/>
   <path id="_111509408" fill="#589B3C" fill-rule="nonzero" d="M0.307724 0.552206c-0.00738392,-0.00738783 -0.0162419,-0.0110769 -0.0265817,-0.0110769 -0.010334,0 -0.0191958,0.00368903 -0.0265798,0.0110769 -0.00722165,0.00722165 -0.0108266,0.0159975 -0.0108266,0.0263334 0,0.0101737 0.00360496,0.0190355 0.0108266,0.0265778 0.00754618,0.00722165 0.0164041,0.0108325 0.0265798,0.0108325 0.0101717,0 0.0190297,-0.00361083 0.0265817,-0.0108325 0.00738196,-0.00704766 0.0110749,-0.0159095 0.0110749,-0.0265778 0,-0.0101737 -0.00369294,-0.0189534 -0.0110749,-0.0263334zm0.0376566 0.0908141c-0.0177198,0.0177198 -0.0391346,0.0265817 -0.0642383,0.0265817 -0.0251037,0 -0.0465146,-0.00886187 -0.0642364,-0.0265817 -0.0177218,-0.0177179 -0.0265798,-0.0392128 -0.0265798,-0.0644807 0,-0.0251057 0.00885796,-0.0465146 0.0265798,-0.0642364 0.0178821,-0.0178841 0.0392968,-0.02683 0.0642364,-0.02683 0.0251037,0 0.0465185,0.00894594 0.0642383,0.02683 0.0178801,0.0177218 0.0268261,0.0391306 0.0268261,0.0642364 0,0.0251018 -0.00894594,0.0466006 -0.0268261,0.0644807z"/>
   <path id="_111509336" fill="#589B3C" fill-rule="nonzero" d="M0.558873 0.524762c-0.00139585,0.00320028 -0.00332345,0.00602912 -0.00578475,0.00849238 -0.00246326,0.00246131 -0.0053312,0.00439086 -0.00861359,0.00578475 -0.0032863,0.00139585 -0.006729,0.00208986 -0.0103359,0.00208986l-0.0374122 0 0 0.101647c0,0.00377504 -0.000697924,0.0072588 -0.00208986,0.010461 -0.00139585,0.00319833 -0.00332345,0.00602912 -0.00578475,0.00849043 -0.00245935,0.00246326 -0.0053312,0.00439086 -0.00861359,0.00578475 -0.00328239,0.00139194 -0.006729,0.00208986 -0.0103379,0.00208986 -0.00722165,0 -0.0134541,-0.00262357 -0.0187051,-0.00787461 -0.00525105,-0.00524909 -0.00787266,-0.0115656 -0.00787266,-0.0189515l0 -0.101647 -0.0376546 0c-0.00722556,0 -0.013458,-0.00262357 -0.018709,-0.00787461 -0.00525105,-0.00525105 -0.00787461,-0.0115695 -0.00787461,-0.0189495 0,-0.00360887 0.000697924,-0.00705548 0.00209377,-0.0103398 0.00138998,-0.00328044 0.00328044,-0.00615229 0.00565963,-0.00861359 0.00237724,-0.00246326 0.00516698,-0.0043889 0.00836726,-0.0057828 0.00320028,-0.00139389 0.00668404,-0.00209377 0.010463,-0.00209377l0.128471 0c0.00360692,0 0.00704962,0.000699879 0.0103359,0.00209377 0.00328239,0.00139389 0.00615033,0.00331954 0.00861359,0.0057828 0.00246131,0.00246131 0.0043889,0.00533315 0.00578475,0.00861359 0.00138998,0.00328435 0.00208986,0.00673096 0.00208986,0.0103398 0,0.00377504 -0.000699879,0.0072588 -0.00208986,0.0104571z"/>
   <path id="_111509264" fill="#589B3C" fill-rule="nonzero" d="M0.746411 0.589001c-0.00139585,0.00319833 -0.00332345,0.00602912 -0.00578475,0.00849043 -0.00245935,0.00246326 -0.0053312,0.00439086 -0.00861164,0.00578475 -0.00328826,0.00139194 -0.00673096,0.00208986 -0.0103379,0.00208986l-0.0642383 0c-0.00722165,0 -0.0134541,-0.00262357 -0.0187051,-0.00787461 -0.00525105,-0.00525105 -0.00787266,-0.0115695 -0.00787266,-0.0189495 0,-0.00360887 0.000692059,-0.00705548 0.00209182,-0.0103379 0.00138998,-0.00328044 0.00328044,-0.00615424 0.00565963,-0.00861555 0.00237529,-0.00246131 0.00516894,-0.0043889 0.00836726,-0.00578475 0.00320028,-0.00138998 0.00668404,-0.00208986 0.0104591,-0.00208986l0.0642383 0c0.00360692,0 0.00704962,0.000699879 0.0103379,0.00208986 0.00328044,0.00139585 0.00615229,0.00332345 0.00861164,0.00578475 0.00246131,0.00246131 0.0043889,0.00533511 0.00578475,0.00861555 0.00138998,0.00328239 0.00208986,0.006729 0.00208986,0.0103379 0,0.00377309 -0.000699879,0.00725684 -0.00208986,0.0104591zm0 0.0642364c-0.00139585,0.00319833 -0.00332345,0.00602912 -0.00578475,0.00849043 -0.00245935,0.00246326 -0.0053312,0.00439281 -0.00861164,0.00578475 -0.00328826,0.00139389 -0.00673096,0.00209182 -0.0103379,0.00209182l-0.0642383 0c-0.0251018,0 -0.0465146,-0.00886187 -0.0642324,-0.0265837 -0.0177218,-0.0177198 -0.0265856,-0.0392108 -0.0265856,-0.0644788 0,-0.0251057 0.00886383,-0.0465185 0.0265856,-0.0642364 0.0178801,-0.0178841 0.0392929,-0.02683 0.0642324,-0.02683l0.0642383 0c0.00360692,0 0.00704962,0.000701834 0.0103379,0.00209377 0.00328044,0.00139389 0.00615229,0.00331954 0.00861164,0.0057828 0.00246131,0.00246131 0.0043889,0.00533315 0.00578475,0.00861359 0.00138998,0.00328435 0.00208986,0.00673096 0.00208986,0.0103398 0,0.00377504 -0.000699879,0.0072588 -0.00208986,0.0104591 -0.00139585,0.00319833 -0.00332345,0.00602912 -0.00578475,0.00849043 -0.00245935,0.00245935 -0.0053312,0.00439086 -0.00861164,0.00578475 -0.00328826,0.00139585 -0.00673096,0.00208791 -0.0103379,0.00208791l-0.0642383 0c-0.010334,0 -0.0191958,0.00369294 -0.0265778,0.0110769 -0.00722165,0.00722165 -0.0108305,0.0159995 -0.0108305,0.0263373 0,0.0101717 0.00360887,0.0190355 0.0108305,0.0265778 0.00754422,0.00722165 0.0164022,0.0108305 0.0265778,0.0108305l0.0642383 0c0.00360692,0 0.00704962,0.000699879 0.0103379,0.00209182 0.00328044,0.00139585 0.00615229,0.00332149 0.00861164,0.0057828 0.00246131,0.00246326 0.0043889,0.00533511 0.00578475,0.00861555 0.00138998,0.00328435 0.00208986,0.006729 0.00208986,0.0103359 0,0.00377504 -0.000699879,0.0072588 -0.00208986,0.010461z"/>
   <path id="_111509192" fill="#589B3C" fill-rule="nonzero" d="M0.953727 0.642774c0,0.00377504 -0.000699879,0.00726075 -0.00208986,0.010461 -0.00139585,0.00320028 -0.0033254,0.00602912 -0.00578475,0.00849238 -0.00246131,0.00246131 -0.00533315,0.00439086 -0.00861164,0.00578475 -0.00328826,0.00139194 -0.00673291,0.00208986 -0.0103379,0.00208986 -0.00722165,0 -0.013456,-0.00262357 -0.0187051,-0.00787461 -0.00525496,-0.00524909 -0.00787657,-0.0115656 -0.00787657,-0.0189534l0 -0.0642344c0,-0.0101717 -0.00369294,-0.0189515 -0.0110749,-0.0263334 -0.00738392,-0.00738587 -0.0162438,-0.0110769 -0.0265798,-0.0110769 -0.0103398,0 -0.0191978,0.00369098 -0.0265817,0.0110769 -0.00722165,0.00722165 -0.0108266,0.0159956 -0.0108266,0.0263334l0 0.0642344c0,0.00377504 -0.000701834,0.00730376 -0.00209377,0.0105862 -0.00139585,0.00328239 -0.00328435,0.00611123 -0.00566159,0.00848847 -0.0023792,0.00238506 -0.00520999,0.00426965 -0.00849043,0.00566354 -0.00328435,0.00139194 -0.00681111,0.00208986 -0.0105842,0.00208986 -0.00722165,0 -0.013456,-0.00262357 -0.0187051,-0.00787461 -0.00525105,-0.00524909 -0.00787461,-0.0115656 -0.00787461,-0.0189534l0 -0.0642344c0,-0.0251057 0.00885992,-0.0465146 0.0265798,-0.0642364 0.0178821,-0.0178841 0.0392949,-0.026828 0.0642383,-0.026828 0.0251018,0 0.0465146,0.00894398 0.0642364,0.026828 0.0178801,0.0177218 0.0268241,0.0391306 0.0268241,0.0642364l0 0.0642344z"/>
   <path id="_111509120" fill="#589B3C" fill-rule="nonzero" d="M1.08146 0.642774c0,0.00377504 -0.000701834,0.00726075 -0.00209182,0.010461 -0.00139585,0.00320028 -0.00332149,0.00602912 -0.00578475,0.00849238 -0.00246131,0.00246131 -0.00533315,0.00439086 -0.00861359,0.00578475 -0.00328435,0.00139194 -0.00673096,0.00208986 -0.0103359,0.00208986 -0.00722556,0 -0.013456,-0.00262357 -0.0187051,-0.00787461 -0.00525496,-0.00524909 -0.00787657,-0.0115656 -0.00787657,-0.0189534l0 -0.0642344c0,-0.0101717 -0.00369294,-0.0189515 -0.0110729,-0.0263334 -0.00738392,-0.00738587 -0.0162438,-0.0110769 -0.0265817,-0.0110769 -0.0103359,0 -0.0191978,0.00369098 -0.0265817,0.0110769 -0.00722165,0.00722165 -0.0108266,0.0159956 -0.0108266,0.0263334l0 0.0642344c0,0.00377504 -0.000701834,0.00730376 -0.00209377,0.0105862 -0.00139585,0.00328239 -0.00328435,0.00611123 -0.00566159,0.00848847 -0.0023792,0.00238506 -0.00520999,0.00426965 -0.00849043,0.00566354 -0.00328435,0.00139194 -0.00680915,0.00208986 -0.0105822,0.00208986 -0.00722165,0 -0.013458,-0.00262357 -0.0187051,-0.00787461 -0.005253,-0.00524909 -0.00787657,-0.0115656 -0.00787657,-0.0189534l0 -0.0642344c0,-0.0251057 0.00885992,-0.0465146 0.0265817,-0.0642364 0.0178801,-0.0178841 0.0392929,-0.026828 0.0642364,-0.026828 0.0251018,0 0.0465146,0.00894398 0.0642364,0.026828 0.0178801,0.0177218 0.0268261,0.0391306 0.0268261,0.0642364l0 0.0642344z"/>
   <path id="_111509048" fill="#589B3C" fill-rule="nonzero" d="M1.15821 0.642774c0,0.00377504 -0.000699879,0.00726075 -0.00208986,0.010461 -0.0013978,0.00320028 -0.00332345,0.00602912 -0.00578475,0.00849238 -0.00246131,0.00246131 -0.0053312,0.00439086 -0.00861359,0.00578475 -0.0032863,0.00139194 -0.00673291,0.00208986 -0.0103379,0.00208986 -0.00722165,0 -0.013456,-0.00262357 -0.0187051,-0.00787461 -0.00525105,-0.00524909 -0.00787461,-0.0115656 -0.00787461,-0.0189534l0 -0.128471c0,-0.00360692 0.000697924,-0.00705353 0.00209377,-0.0103379 0.00138998,-0.00327848 0.00328044,-0.00615229 0.00565963,-0.00861359 0.00237724,-0.00246326 0.00516698,-0.0043889 0.00836726,-0.0057828 0.00320028,-0.00139389 0.00668404,-0.00209377 0.0104591,-0.00209377 0.00360496,0 0.00705157,0.000699879 0.0103379,0.00209377 0.00328239,0.00139389 0.00615229,0.00331954 0.00861359,0.0057828 0.00246131,0.00246131 0.00438695,0.00533511 0.00578475,0.00861359 0.00138998,0.00328435 0.00208986,0.00673096 0.00208986,0.0103379l0 0.128471z"/>
   <path id="_111508976" fill="#589B3C" fill-rule="nonzero" d="M1.36344 0.642774c0,0.00377504 -0.000701834,0.00726075 -0.00209182,0.010461 -0.00139585,0.00320028 -0.00332149,0.00602912 -0.00578475,0.00849238 -0.00246131,0.00246131 -0.00533315,0.00439086 -0.00861555,0.00578475 -0.00328239,0.00139194 -0.006729,0.00208986 -0.0103359,0.00208986l-0.0642344 0c-0.0251057,0 -0.0465165,-0.00886187 -0.0642383,-0.0265798 -0.0177179,-0.0177218 -0.0265798,-0.0392147 -0.0265798,-0.0644827 0,-0.0251057 0.00886187,-0.0465146 0.0265798,-0.0642364 0.0178821,-0.0178841 0.0392949,-0.026828 0.0642383,-0.026828l0.0642344 0c0.00360692,0 0.00705353,0.000699879 0.0103359,0.00209377 0.00328239,0.00139389 0.00615424,0.00331954 0.00861555,0.0057828 0.00246326,0.00246131 0.0043889,0.00533511 0.00578475,0.00861359 0.00138998,0.00328435 0.00209182,0.00673096 0.00209182,0.0103379 0,0.00377895 -0.000701834,0.00726075 -0.00209182,0.0104591 -0.00139585,0.00319833 -0.00332149,0.00602912 -0.00578475,0.00849043 -0.00246131,0.00246326 -0.00533315,0.00439281 -0.00861555,0.00578475 -0.00328239,0.0013978 -0.006729,0.00209182 -0.0103359,0.00209182l-0.0642344 0c-0.0103379,0 -0.0191978,0.00369098 -0.0265817,0.0110769 -0.00722165,0.00722165 -0.0108286,0.0159956 -0.0108286,0.0263334 0,0.0101737 0.00360692,0.0190355 0.0108286,0.0265798 0.00754227,0.00722165 0.0164041,0.0108286 0.0265817,0.0108286l0.0376546 0 0 -0.0105822 -0.0376546 0c-0.00722165,0 -0.013458,-0.00262357 -0.0187071,-0.00787461 -0.00524909,-0.00524909 -0.00787461,-0.0115675 -0.00787461,-0.0189515 0,-0.00360692 0.000697924,-0.00705353 0.00209182,-0.0103379 0.00139194,-0.00327848 0.00328044,-0.00615229 0.00566354,-0.00861359 0.00237529,-0.00246326 0.00516503,-0.0043889 0.00836531,-0.00578475 0.00320028,-0.00139194 0.00668599,-0.00209182 0.010461,-0.00209182l0.0642344 0c0.00360692,0 0.00705353,0.000699879 0.0103359,0.00209182 0.00328239,0.00139585 0.00615424,0.00332149 0.00861555,0.00578475 0.00246326,0.00246131 0.0043889,0.00533511 0.00578475,0.00861359 0.00138998,0.00328435 0.00209182,0.00673096 0.00209182,0.0103379l0 0.0642344z"/>
   <path id="_111508808" fill="#414042" fill-rule="nonzero" d="M0.648533 0.411044c-0.00104786,0 -0.0021055,-8.40636e-005 -0.003169,-0.000260011 -0.0839913,-0.0139233 -0.144949,-0.085913 -0.144949,-0.171175 0,-0.0540783 0.0245466,-0.104106 0.0673487,-0.137258 0.0306304,-0.0237196 0.0673428,-0.0362588 0.106168,-0.0362588 0.0748987,0 0.141084,0.0477208 0.164692,0.118753 0.00335277,0.0100837 -0.0021055,0.0209709 -0.0121873,0.0243198 -0.0100759,0.00335668 -0.0209709,-0.00210355 -0.0243198,-0.0121834 -0.0183767,-0.0552787 -0.0698862,-0.0924172 -0.128185,-0.0924172 -0.0302199,0 -0.0587839,0.00975138 -0.0826091,0.0282024 -0.0333244,0.0258095 -0.0524362,0.0647525 -0.0524362,0.106843 0,0.0663614 0.0474236,0.122387 0.112768,0.133221 0.0104806,0.00173797 0.0175673,0.0116418 0.0158274,0.0221224 -0.00155811,0.00941513 -0.00971033,0.0160913 -0.0189495,0.0160913z"/>
   <path id="_111508736" fill="#414042" fill-rule="nonzero" d="M0.673934 0.347036c-0.0592395,0 -0.107429,-0.0481919 -0.107429,-0.107427 0,-0.0334827 0.0151999,-0.0644553 0.0416995,-0.0849805 0.00840441,-0.00649831 0.0204861,-0.00496757 0.0269844,0.00343292 0.00650809,0.0084005 0.00497148,0.0204822 -0.00342901,0.0269864 -0.01702,0.0131804 -0.026785,0.0330683 -0.026785,0.0545612 0,0.0380222 0.0309354,0.0689556 0.0689596,0.0689556 0.0292483,0 0.0553999,-0.0185253 0.0650848,-0.0461021 0.00351699,-0.0100251 0.0145059,-0.0152957 0.0245173,-0.0117787 0.010027,0.00351699 0.0152996,0.0144961 0.0117806,0.0245212 -0.0150865,0.0429643 -0.055828,0.0718314 -0.101383,0.0718314z"/>
   <path id="_111508664" fill="#589B3C" fill-rule="nonzero" d="M0.913541 0.239609c0,-0.132123 -0.107486,-0.239609 -0.239607,-0.239609 -0.0929216,0 -0.178262,0.0544732 -0.21742,0.138777 -0.0147268,0.0317037 -0.0221928,0.0656263 -0.0221928,0.100831 0,0.0106233 0.00861164,0.0192369 0.0192349,0.0192369 0.0106272,0 0.0192369,-0.00861359 0.0192369,-0.0192369 0,-0.029563 0.00626176,-0.0580371 0.0186113,-0.0846228 0.0328767,-0.0707796 0.104522,-0.116514 0.18253,-0.116514 0.110905,0 0.201135,0.0902296 0.201135,0.201137 0,0.0248105 -0.00457463,0.0492261 -0.0133446,0.0720973 -0.0233619,0.000258056 -0.0422254,0.0192545 -0.0422254,0.042675 0,0.0235867 0.0191176,0.0427043 0.0427004,0.0427043 0.0235847,0 0.0427024,-0.0191176 0.0427024,-0.0427043 0,-0.00960085 -0.0032081,-0.0184334 -0.00855494,-0.0255651 0.0113056,-0.0282043 0.0171939,-0.0584594 0.0171939,-0.0892072z"/>
  </g>
 </g>
</svg>
